<?xml version="1.0" encoding="UTF-8" standalone="no"?>
<!-- Created with Inkscape (http://www.inkscape.org/) -->

<svg
   width="128"
   height="128"
   viewBox="0 0 33.866667 33.866667"
   version="1.1"
   id="svg5"
   inkscape:version="1.1.2 (b8e25be833, 2022-02-05)"
   sodipodi:docname="erdtv.svg"
   inkscape:export-filename="D:\Games\Rythm\ERDTV\git\todoelrock\erdtv.png"
   inkscape:export-xdpi="96.000008"
   inkscape:export-ydpi="96.000008"
   xmlns:inkscape="http://www.inkscape.org/namespaces/inkscape"
   xmlns:sodipodi="http://sodipodi.sourceforge.net/DTD/sodipodi-0.dtd"
   xmlns="http://www.w3.org/2000/svg"
   xmlns:svg="http://www.w3.org/2000/svg">
  <sodipodi:namedview
     id="namedview7"
     pagecolor="#ffffff"
     bordercolor="#cccccc"
     borderopacity="1"
     inkscape:pageshadow="0"
     inkscape:pageopacity="0"
     inkscape:pagecheckerboard="false"
     inkscape:document-units="mm"
     showgrid="false"
     showguides="true"
     inkscape:guide-bbox="true"
     inkscape:zoom="7.2466938"
     inkscape:cx="47.745911"
     inkscape:cy="89.420088"
     inkscape:window-width="3840"
     inkscape:window-height="2066"
     inkscape:window-x="-11"
     inkscape:window-y="-11"
     inkscape:window-maximized="1"
     inkscape:current-layer="layer1"
     units="px"
     width="128px">
    <sodipodi:guide
       position="-91.350277,25.504926"
       orientation="1,0"
       id="guide982" />
    <sodipodi:guide
       position="-104.93233,40.693462"
       orientation="0,-1"
       id="guide984" />
  </sodipodi:namedview>
  <defs
     id="defs2" />
  <g
     inkscape:label="Capa 1"
     inkscape:groupmode="layer"
     id="layer1">
    <path
       style="fill:#faba4b;fill-opacity:1;stroke:#853514;stroke-width:0.859571;stroke-linecap:butt;stroke-linejoin:miter;stroke-miterlimit:4;stroke-dasharray:none;stroke-opacity:1"
       d="M 16.949163,1.0388873 C 22.16291,0.98370718 30.519724,1.9206219 30.538304,9.3624745 30.559234,17.741951 20.495953,32.867621 16.949167,32.837485 13.100415,32.804778 3.2658703,16.643493 3.3286405,9.3624745 3.3061025,2.1715478 11.327532,0.90189755 16.949163,1.0388873 Z"
       id="path986"
       sodipodi:nodetypes="csscc" />
    <path
       d="M 12.042593,9.4948034 C 10.9093,9.6159478 9.9240836,10.095725 9.0210779,10.966256 8.7239,11.252703 8.2546067,11.788534 8.300883,11.788534 c 0.012354,0 0.1116138,-0.07261 0.2205802,-0.161349 0.1089311,-0.08878 0.3500903,-0.261033 0.5359015,-0.382812 2.0705033,-1.3571917 4.3727403,-1.5646056 5.9142603,-0.532831 0.374623,0.25076 0.513769,0.392907 0.721289,0.736997 0.895135,1.484195 0.789769,3.159708 -0.308509,4.907159 -0.119838,0.190683 -0.21705,0.356939 -0.215991,0.36947 10e-4,0.01253 0.08743,0.06343 0.191989,0.113061 l 0.190152,0.09029 0.159055,-0.338195 c 0.85366,-1.814871 1.014903,-3.632178 0.475436,-5.359085 L 16.071596,10.868055 15.83965,10.69707 C 15.230257,10.247755 14.655774,9.9427764 14.037698,9.7404455 13.377334,9.5242776 12.6289,9.4321486 12.042593,9.4948034 m 9.036411,-0.013978 c -0.98684,0.095129 -1.886845,0.4228758 -2.738809,0.9973226 -0.545009,0.367458 -0.541938,0.363963 -0.663329,0.749846 -0.538867,1.712647 -0.376741,3.548627 0.472964,5.355027 l 0.162479,0.345501 0.190153,-0.09029 c 0.104554,-0.04963 0.190965,-0.10053 0.191989,-0.113061 0.0011,-0.01253 -0.09615,-0.178787 -0.215992,-0.36947 -0.938022,-1.49249 -1.153625,-2.956459 -0.629442,-4.274116 0.142041,-0.356974 0.454326,-0.881085 0.624853,-1.048647 0.202225,-0.19866 0.682708,-0.507451 0.990299,-0.636397 0.611935,-0.256478 1.225563,-0.358738 1.950171,-0.324957 1.31688,0.06142 2.656916,0.582319 3.839274,1.492384 0.160467,0.123509 0.301379,0.224569 0.313133,0.224569 0.03177,0 -0.283658,-0.371693 -0.549033,-0.646986 -0.829055,-0.859977 -1.816142,-1.4157865 -2.826808,-1.5916788 -0.323404,-0.056266 -0.883627,-0.09107 -1.111902,-0.069044 m -9.424695,1.8382038 c -0.918113,0.0833 -1.8723724,0.54522 -2.5101453,1.215044 -0.179881,0.188918 -0.3666806,0.46474 -0.3666806,0.541444 0,0.07812 0.1827402,-0.03212 0.5294772,-0.319381 0.6757894,-0.559834 1.1561307,-0.835092 1.7861027,-1.02348 0.269963,-0.08076 0.398591,-0.0964 0.914231,-0.111366 1.02948,-0.02986 1.317939,0.06163 2.139935,0.678684 0.485213,0.364245 0.938798,0.651045 1.112643,0.703534 0.107237,0.0324 0.195519,-0.06672 0.182105,-0.204449 -0.01017,-0.104413 -0.02556,-0.114932 -0.295201,-0.201943 -0.327887,-0.105825 -0.529442,-0.22944 -1.021573,-0.626513 -0.541797,-0.437101 -0.875791,-0.5742 -1.561605,-0.640914 -0.337524,-0.03283 -0.62743,-0.03622 -0.909289,-0.01066 m 9.599987,0.01002 c -0.635902,0.06731 -0.991146,0.217579 -1.516634,0.641549 -0.488461,0.394108 -0.66993,0.505581 -1.010949,0.620971 -0.278399,0.09425 -0.295695,0.106037 -0.305826,0.208756 -0.01345,0.136428 0.07529,0.23544 0.182105,0.203178 0.173845,-0.05249 0.627431,-0.339289 1.112644,-0.703534 0.821995,-0.617053 1.110454,-0.708547 2.139935,-0.678684 0.51564,0.01497 0.644268,0.0306 0.91423,0.111366 0.629972,0.188388 1.110314,0.463646 1.786103,1.02348 0.346737,0.287259 0.529478,0.397496 0.529478,0.319381 0,-0.0767 -0.1868,-0.352526 -0.366681,-0.541444 -0.860083,-0.903323 -2.132734,-1.346002 -3.464405,-1.205019 m -9.502245,0.671236 c -0.736079,0.103459 -1.482854,0.450373 -2.0038597,0.93082 l -0.1764924,0.162726 0.1016596,0.08479 c 0.055948,0.04663 0.2386177,0.156973 0.4059325,0.245184 1.346919,0.710099 3.122292,0.704381 4.222157,-0.01363 0.306073,-0.199789 0.305014,-0.180834 0.0275,-0.504556 -0.340419,-0.397037 -0.832691,-0.697639 -1.365804,-0.833997 -0.317193,-0.08112 -0.898135,-0.115356 -1.211091,-0.07134 m 9.47383,0.0047 c -0.749775,0.09633 -1.490972,0.544303 -1.873537,1.132375 l -0.06227,0.09569 0.269398,0.175857 c 1.101877,0.719312 2.87605,0.725595 4.224099,0.0149 0.167314,-0.08821 0.349984,-0.198554 0.405932,-0.245184 l 0.10166,-0.08479 -0.176493,-0.162478 C 23.854276,12.69161 23.387984,12.395562 23.060978,12.26231 22.425641,12.003431 21.857724,11.923798 21.225881,12.004984 m -9.858831,0.277058 c -0.432124,0.113308 -0.840668,0.353585 -1.000394,0.588355 l -0.08751,0.128628 0.198872,0.180128 c 0.303602,0.27501 0.749704,0.519876 1.105689,0.606887 l 0.105896,0.02591 -0.11292,-0.09555 c -0.06209,-0.0526 -0.155419,-0.182458 -0.207379,-0.288671 -0.174304,-0.356268 -0.112637,-0.77452 0.160008,-1.08504 0.06308,-0.0718 0.109037,-0.129687 0.102189,-0.128628 -0.0069,0.0011 -0.125874,0.03166 -0.264456,0.06799 m 10.969004,0.0635 c 0.270068,0.307591 0.331135,0.72729 0.157501,1.082181 -0.05196,0.106213 -0.145288,0.236076 -0.207378,0.288671 l -0.11292,0.09555 0.105895,-0.02591 c 0.355986,-0.08701 0.802088,-0.331877 1.10569,-0.606887 L 23.583709,12.999028 23.496199,12.8704 C 23.332812,12.630226 22.87605,12.368806 22.445691,12.269193 l -0.221781,-0.05136 0.112144,0.12771 m -9.357734,0.07349 c 0.299155,0.372258 0.270669,0.89277 -0.06813,1.244272 l -0.16968,0.176033 0.10992,-0.02171 c 0.216626,-0.04285 0.565622,-0.164562 0.777131,-0.271057 0.257185,-0.12951 0.515287,-0.302261 0.515287,-0.344866 0,-0.01687 -0.12065,-0.158949 -0.268127,-0.31571 -0.221922,-0.2359 -0.322946,-0.312462 -0.586026,-0.444161 -0.396472,-0.198483 -0.454997,-0.202754 -0.310379,-0.0228 m 7.600575,0.02044 c -0.301766,0.151078 -0.564917,0.372999 -0.793263,0.669048 l -0.07882,0.102189 0.103672,0.0833 c 0.240523,0.193259 0.830149,0.450091 1.201948,0.523618 l 0.10992,0.02171 -0.16968,-0.176033 c -0.175575,-0.182176 -0.279599,-0.426865 -0.279599,-0.657787 0,-0.180129 0.09368,-0.439925 0.211473,-0.586485 0.144265,-0.179528 0.08606,-0.175645 -0.30565,0.02044 m -6.171304,4.525901 c -0.444514,0.233923 -0.620053,0.794568 -0.393684,1.257261 0.279175,0.5706 1.046564,0.700392 1.505586,0.254678 l 0.123544,-0.119979 0.209885,0.101554 c 0.285953,0.13837 0.596828,0.194424 1.078511,0.194424 0.481683,0 0.792556,-0.05605 1.078509,-0.194424 l 0.209885,-0.101554 0.123545,0.119979 c 0.458209,0.444938 1.226446,0.315887 1.504633,-0.252737 0.231487,-0.47314 0.04631,-1.032763 -0.419664,-1.268274 l -0.114261,-0.05775 0.11052,0.11885 c 0.410027,0.440878 0.07402,1.138305 -0.520865,1.081157 -0.232405,-0.02234 -0.425452,-0.156478 -0.526971,-0.366187 l -0.08108,-0.167491 -0.05358,0.08574 c -0.11525,0.184293 -0.425771,0.450726 -0.659553,0.565799 -0.234381,0.115391 -0.259232,0.11998 -0.650374,0.11998 -0.36601,0 -0.426088,-0.0092 -0.600815,-0.09259 -0.270317,-0.128945 -0.467353,-0.28147 -0.630962,-0.48846 l -0.139781,-0.176846 -0.0778,0.160644 c -0.0981,0.202648 -0.294425,0.337383 -0.523689,0.359409 -0.579424,0.05567 -0.931985,-0.624783 -0.545432,-1.052671 0.06911,-0.07649 0.119839,-0.138441 0.112708,-0.137665 -0.0071,7.77e-4 -0.06057,0.02651 -0.118814,0.05715 m 0.317686,2.707252 c -1.006571,0.543773 -3.445026,1.989952 -3.496879,2.073892 -0.03053,0.04935 0.733502,-0.245713 1.670324,-0.645116 0.179669,-0.0766 0.344337,-0.128309 0.365974,-0.114967 0.0216,0.01338 0.295131,0.0778 0.607805,0.143206 l 0.568482,0.118886 h 2.582085 2.582119 l 0.401555,-0.121004 c 0.676319,-0.203742 0.518394,-0.235546 1.65797,0.333818 0.551503,0.27554 0.990087,0.487331 0.974661,0.470599 -0.109848,-0.118955 -1.934462,-1.379958 -2.654622,-1.834638 -1.13234,-0.714865 -0.997323,-0.695204 -2.172762,-0.316663 -0.457257,0.147266 -0.854859,0.267739 -0.883521,0.267739 -0.02863,0 -0.390543,-0.119132 -0.804242,-0.264738 -0.926408,-0.326088 -0.991287,-0.331241 -1.398949,-0.111014 m -0.494179,0.762482 c -0.407697,0.213697 -0.725384,0.389131 -0.705969,0.389872 0.01941,7.41e-4 0.194141,0.02436 0.388283,0.05249 0.528912,0.07663 5.346273,0.07575 5.998977,-0.0011 0.251431,-0.02958 0.462587,-0.05923 0.469223,-0.06587 0.0066,-0.0067 -0.285776,-0.176351 -0.64981,-0.377094 -0.857329,-0.472752 -0.788427,-0.466469 -1.940993,-0.176845 l -0.852564,0.214226 -0.753516,-0.197107 C 15.770324,20.165287 15.327999,20.06984 15.201806,20.06158 l -0.22944,-0.015 -0.741268,0.38853 m -0.317686,1.093618 c 0.03883,0.04419 0.245324,0.219098 0.45888,0.388636 0.468658,0.372081 1.272687,0.813701 1.481442,0.813701 0.07222,0 0.340525,-0.05757 0.596227,-0.127957 l 0.464881,-0.127993 0.534066,0.145642 c 0.293754,0.08009 0.562129,0.145606 0.596404,0.145606 0.03427,0 0.294036,-0.128839 0.577306,-0.286306 0.504839,-0.280693 0.837245,-0.520935 1.111267,-0.803252 l 0.137417,-0.141547 -0.929021,0.367422 -0.92902,0.367422 -0.461493,-0.144759 c -0.509286,-0.159761 -0.73089,-0.197072 -0.844869,-0.142253 -0.04151,0.01994 -0.252808,0.07875 -0.46947,0.130675 l -0.394002,0.09435 -0.947341,-0.36121 c -0.521076,-0.198659 -0.971202,-0.36961 -1.000323,-0.379882 -0.03692,-0.01302 -0.03159,0.0056 0.01765,0.0617 m 2.277988,1.945758 c -0.597286,0.129581 -1.193478,0.423441 -1.607317,0.792239 l -0.141194,0.125804 0.352985,-0.173316 c 1.445968,-0.710064 2.720843,-0.71377 4.147572,-0.01214 0.184435,0.09072 0.35122,0.171409 0.370634,0.179351 0.08069,0.03293 -0.301343,-0.267103 -0.53689,-0.42164 -0.536148,-0.35182 -1.106572,-0.52623 -1.79281,-0.54815 -0.371057,-0.01183 -0.522841,-7.77e-4 -0.79298,0.05785"
       style="fill:#853514;fill-opacity:1;fill-rule:evenodd;stroke:none;stroke-width:0.0352985"
       id="path36598"
       sodipodi:nodetypes="ccsccccccccccccccccccccccccccssccccsscccccscccccccccccccscccccccccccccccscccccccccccccccccccccccsccccccccsccccscscccscccccccsccccscccscccscsccscscccsccccccccccscccsccccccscccccscccsccccccccccscccccccccc" />
  </g>
</svg>
